<svg xmlns="http://www.w3.org/2000/svg" width="35.995" height="41.619" viewBox="0 0 35.995 41.619">
  <g id="Raggruppa_11180" data-name="Raggruppa 11180" transform="translate(2 -1.761)">
    <g id="Raggruppa_11182" data-name="Raggruppa 11182">
      <path id="Tracciato_60184" data-name="Tracciato 60184" d="M989.246,512.71H980.89a5.9,5.9,0,0,0-11.279,0h-8.359a3.4,3.4,0,0,0-.8.087,3.979,3.979,0,0,0-2.02,1.145,4.3,4.3,0,0,0-1.179,2.931V546a4.3,4.3,0,0,0,1.18,2.955,3.967,3.967,0,0,0,2.02,1.144,4.932,4.932,0,0,0,.8.062h27.995a4.1,4.1,0,0,0,4-4.162V516.872A4.1,4.1,0,0,0,989.246,512.71Zm-14-.52a1.561,1.561,0,1,1-1.5,1.621c0-.02,0-.04,0-.06A1.543,1.543,0,0,1,975.25,512.19Zm14,33.815H961.252V516.872h27.995Z" transform="translate(-959.252 -506.787)" fill="#0060c1"/>
    </g>
    <path id="Tracciato_60327" data-name="Tracciato 60327" d="M16.593,39.02H10.849V33.276A1.277,1.277,0,0,0,9.573,32H8.3A1.277,1.277,0,0,0,7.02,33.276V39.02H1.276A1.277,1.277,0,0,0,0,40.3v1.276a1.277,1.277,0,0,0,1.276,1.276H7.02v5.744A1.277,1.277,0,0,0,8.3,49.87H9.573a1.277,1.277,0,0,0,1.276-1.276V42.849h5.744a1.277,1.277,0,0,0,1.276-1.276V40.3A1.277,1.277,0,0,0,16.593,39.02Z" transform="translate(7.065 -16.174)" fill="#b8191a"/>
  </g>
</svg>
